<?xml version="1.0" encoding="UTF-8"?>
<svg width="24px" height="24px" viewBox="0 0 24 24" version="1.1" xmlns="http://www.w3.org/2000/svg" xmlns:xlink="http://www.w3.org/1999/xlink">
    <title>Back</title>
    <g id="Symbols" stroke="none" stroke-width="1" fill="none" fill-rule="evenodd">
        <g id="Back" fill="#000000" fill-rule="nonzero">
            <g id="noun_back_2102859" transform="translate(2.000000, 5.000000)">
                <path d="M19.1666667,6.66676837 L2.84520467,6.66676837 L7.80944825,1.70216875 C8.13496908,1.37685137 8.13496908,0.849100708 7.80944825,0.523783333 C7.48392742,0.1982625 6.95617675,0.1982625 6.63106283,0.523783333 L0.244674667,6.91037496 C0.20576475,6.94920858 0.170949292,6.99208579 0.140279125,7.03798929 C0.126673375,7.05833433 0.1173655,7.08038329 0.105743417,7.101593 C0.091273,7.12796529 0.0753275833,7.15339658 0.063730875,7.18142192 C0.0524139583,7.208786 0.0458780833,7.23734537 0.0376129167,7.26554871 C0.0305684583,7.28940329 0.0213622917,7.31221517 0.0164540417,7.33690896 C-0.004959125,7.444636 -0.004959125,7.55556742 0.0164540417,7.66329446 C0.0213622917,7.68798825 0.0305684167,7.71080017 0.0376129167,7.73465471 C0.0458780833,7.76285804 0.0524139583,7.79141742 0.063730875,7.8187815 C0.0753275417,7.84680679 0.091273,7.87223812 0.105743417,7.89861042 C0.117365542,7.91982012 0.126673375,7.94186908 0.140279125,7.96221412 C0.170949292,8.00811767 0.20576475,8.05099483 0.244674667,8.08982846 L6.63106279,14.4762166 C6.79361975,14.638977 7.00703937,14.7203572 7.2202555,14.7203572 C7.43347162,14.7203572 7.64689125,14.638977 7.80944821,14.4762166 C8.13496904,14.1508992 8.13496904,13.6231485 7.80944821,13.2978312 L2.84523008,8.33343504 L19.1666667,8.33343504 C19.6268717,8.33343504 20,7.96030679 20,7.50010171 C20,7.03989662 19.6268717,6.66676837 19.1666667,6.66676837 Z" id="Path"></path>
            </g>
        </g>
    </g>
</svg>